<svg width="17" height="18" viewBox="0 0 17 18" fill="none" xmlns="http://www.w3.org/2000/svg">
<path d="M2.24633 11.3563H5.54368M14.3366 11.3563H11.0393M3.34545 7.91019H13.2375M15.9853 7.90641V14.8023C15.9853 15.4367 15.4932 15.951 14.8862 15.951H13.7871C13.18 15.951 12.6879 15.4367 12.6879 14.8023V13.6536H3.89501V14.8023C3.89501 15.4367 3.40291 15.951 2.79589 15.951H1.69677C1.08975 15.951 0.597656 15.4367 0.597656 14.8023V7.90641L2.93434 3.83897C3.53036 2.80148 4.60341 2.16675 5.7613 2.16675H10.8216C11.9795 2.16675 13.0526 2.80148 13.6486 3.83897L15.9853 7.90641Z" stroke="#F2AC29" stroke-width="1.14869"/>
</svg>
