<svg width="18" height="18" viewBox="0 0 18 18" fill="none" xmlns="http://www.w3.org/2000/svg">
<path d="M1.41602 12.1644H16.8036M1.41602 8.71831L5.81248 4.12356L13.5063 12.1644M2.51513 0.67749H15.7045C16.3116 0.67749 16.8036 1.19178 16.8036 1.82618V15.6104C16.8036 16.2449 16.3116 16.7591 15.7045 16.7591H2.51513C1.90811 16.7591 1.41602 16.2449 1.41602 15.6104V1.82618C1.41602 1.19178 1.90811 0.67749 2.51513 0.67749ZM12.4072 6.42094C11.8002 6.42094 11.3081 5.90665 11.3081 5.27225C11.3081 4.63784 11.8002 4.12356 12.4072 4.12356C13.0142 4.12356 13.5063 4.63784 13.5063 5.27225C13.5063 5.90665 13.0142 6.42094 12.4072 6.42094Z" stroke="#F2AC29" stroke-width="1.14869" stroke-linejoin="round"/>
</svg>
