<svg width="33" height="33" viewBox="0 0 33 33" fill="none" xmlns="http://www.w3.org/2000/svg">
<path d="M18.6875 10.6667H23.0625L18.6875 15.0417H23.0625M25.25 1.91669H31.0833L25.25 7.75002H31.0833" fill="#F2AC29"/>
<path d="M18.6875 10.6667H23.0625L18.6875 15.0417H23.0625M25.25 1.91669H31.0833L25.25 7.75002H31.0833" stroke="#F2AC29" stroke-width="1.5" stroke-linecap="round" stroke-linejoin="round"/>
<path d="M29.9894 16.5C29.9894 20.0777 28.5682 23.5088 26.0384 26.0386C23.5086 28.5684 20.0775 29.9896 16.4998 29.9896V32.1771C25.158 32.1771 32.1769 25.1581 32.1769 16.5H29.9894ZM16.4998 29.9896C12.9222 29.9896 9.49105 28.5684 6.96126 26.0386C4.43147 23.5088 3.01025 20.0777 3.01025 16.5H0.822754C0.822754 25.1581 7.84171 32.1771 16.4998 32.1771V29.9896ZM3.01025 16.5C3.01025 12.9224 4.43147 9.49123 6.96126 6.96144C9.49105 4.43166 12.9222 3.01044 16.4998 3.01044V0.822937C7.84171 0.822937 0.822754 7.8419 0.822754 16.5H3.01025ZM21.604 19.7813C19.3801 19.7813 17.2472 18.8978 15.6746 17.3252C14.102 15.7527 13.2186 13.6198 13.2186 11.3959H11.0311C11.0311 14.2 12.145 16.8892 14.1278 18.872C16.1106 20.8548 18.7999 21.9688 21.604 21.9688V19.7813ZM28.7863 15.7256C28.0405 16.9636 26.9872 17.9877 25.7287 18.6984C24.4702 19.409 23.0493 19.782 21.604 19.7813V21.9688C23.4261 21.9697 25.2175 21.4996 26.8043 20.604C28.3911 19.7084 29.7194 18.4177 30.6603 16.8573L28.7863 15.7256ZM13.2186 11.3959C13.218 9.9506 13.5911 8.52974 14.3017 7.27126C15.0123 6.01278 16.0363 4.95945 17.2742 4.21356L16.1425 2.34106C14.5823 3.28167 13.2917 4.60971 12.396 6.19626C11.5004 7.78281 11.0302 9.57397 11.0311 11.3959H13.2186ZM16.4998 3.01044C16.3519 3.00695 16.2114 2.94509 16.109 2.83835C16.0464 2.77745 16.0045 2.69835 15.9894 2.61231C15.9836 2.5671 15.9865 2.43585 16.1425 2.34106L17.2742 4.21356C18.0078 3.77023 18.244 2.95794 18.158 2.31919C18.0675 1.65565 17.5455 0.822937 16.4998 0.822937V3.01044ZM30.6603 16.8573C30.564 17.0134 30.4328 17.0163 30.3875 17.0104C30.3015 16.9953 30.2224 16.9535 30.1615 16.8909C30.0548 16.7884 29.9929 16.6479 29.9894 16.5H32.1769C32.1769 15.4544 31.3442 14.9323 30.6807 14.8419C30.0419 14.7559 29.2296 14.9921 28.7863 15.7256L30.6603 16.8573Z" fill="#F2AC29"/>
</svg>
