<svg width="16" height="15" viewBox="0 0 16 15" fill="none" xmlns="http://www.w3.org/2000/svg">
<path d="M7.698 1.5L2.91378 1.5M14.8743 12.5L14.8743 4.5C14.8743 3.94772 14.4459 3.5 13.9175 3.5L2.43536 3.5C1.90691 3.5 1.47852 3.94772 1.47852 4.5L1.47852 12.5C1.47852 13.0523 1.90691 13.5 2.43536 13.5L13.9175 13.5C14.4459 13.5 14.8743 13.0523 14.8743 12.5ZM10.0901 10.5C9.03321 10.5 8.17643 9.60457 8.17643 8.5C8.17643 7.39543 9.03321 6.5 10.0901 6.5C11.147 6.5 12.0038 7.39543 12.0038 8.5C12.0038 9.60457 11.147 10.5 10.0901 10.5Z" stroke="#F2AC29"/>
</svg>
