<svg width="16" height="15" viewBox="0 0 16 15" fill="none" xmlns="http://www.w3.org/2000/svg">
<path d="M2.91378 9.5H5.78431M13.4391 9.5H10.5685M3.87063 6.5H12.4822M14.8743 6.4967V12.5C14.8743 13.0523 14.4459 13.5 13.9175 13.5H12.9606C12.4322 13.5 12.0038 13.0523 12.0038 12.5V11.5H4.34905V12.5C4.34905 13.0523 3.92065 13.5 3.3922 13.5H2.43536C1.90691 13.5 1.47852 13.0523 1.47852 12.5V6.4967L3.51273 2.95576C4.0316 2.05257 4.96575 1.5 5.97376 1.5H10.3791C11.3871 1.5 12.3212 2.05257 12.8401 2.95576L14.8743 6.4967Z" stroke="#F2AC29"/>
</svg>
