<svg width="15" height="14" viewBox="0 0 15 14" fill="none" xmlns="http://www.w3.org/2000/svg">
<path fill-rule="evenodd" clip-rule="evenodd" d="M5.97567 0.729276C6.35502 0.0354699 7.20071 -0.205576 7.86458 0.190884C8.07921 0.319063 8.25709 0.504964 8.37974 0.729276L14.173 11.3247C14.5523 12.0185 14.3217 12.9024 13.6578 13.2988C13.4487 13.4238 13.2119 13.4895 12.971 13.4895H1.38444C0.619836 13.4895 0 12.8417 0 12.0426C0 11.8412 0.0402399 11.6425 0.117538 11.4592L0.18241 11.3247L5.97567 0.729276ZM0.950292 11.8791C0.932276 11.9313 0.922961 11.9866 0.922961 12.0426C0.922961 12.3089 1.12957 12.5249 1.38444 12.5249H12.971C13.0513 12.5249 13.1302 12.503 13.1999 12.4613C13.4212 12.3292 13.4981 12.0346 13.3716 11.8033L7.57838 1.20783C7.5375 1.13306 7.47821 1.07109 7.40666 1.02837C7.18537 0.896215 6.90348 0.976564 6.77703 1.20783L0.983764 11.8033L0.950292 11.8791ZM6.35288 5.00732C6.33469 4.63648 6.63045 4.32585 7.00174 4.32585C7.37355 4.32585 7.66951 4.63732 7.65053 5.00865L7.45469 8.84012H6.54096L6.35288 5.00732ZM7.00237 11.1455C6.78701 11.1455 6.60858 11.0732 6.46706 10.9285C6.32553 10.7838 6.25478 10.6053 6.25478 10.3931C6.25478 10.1809 6.32553 10.0041 6.46706 9.86261C6.60858 9.72113 6.78701 9.6504 7.00237 9.6504C7.21158 9.6504 7.3854 9.72113 7.52385 9.86261C7.66229 10.0041 7.73151 10.1809 7.73151 10.3931C7.73151 10.6053 7.66229 10.7838 7.52385 10.9285C7.3854 11.0732 7.21158 11.1455 7.00237 11.1455Z" fill="#F2AC29"/>
</svg>
