<svg width="16" height="15" viewBox="0 0 16 15" fill="none" xmlns="http://www.w3.org/2000/svg">
<path d="M1.47852 7.5L1.01155 7.32128C0.967504 7.43635 0.967504 7.56365 1.01155 7.67872L1.47852 7.5ZM14.8743 7.5L15.3413 7.67873C15.3853 7.56365 15.3853 7.43635 15.3413 7.32127L14.8743 7.5ZM8.17641 12C5.97906 12 4.43138 10.8572 3.41226 9.67373C2.90296 9.08232 2.53363 8.48888 2.29183 8.04292C2.17122 7.82048 2.08313 7.63621 2.02586 7.50925C1.99725 7.44581 1.97638 7.39681 1.96305 7.36465C1.95638 7.34857 1.9516 7.33671 1.94868 7.32938C1.94722 7.32572 1.94623 7.32318 1.9457 7.32182C1.94543 7.32114 1.94528 7.32075 1.94524 7.32066C1.94523 7.32061 1.94524 7.32064 1.94528 7.32074C1.9453 7.32079 1.94535 7.32093 1.94536 7.32095C1.94542 7.3211 1.94548 7.32128 1.47852 7.5C1.01155 7.67872 1.01163 7.67893 1.01172 7.67916C1.01176 7.67926 1.01185 7.67951 1.01193 7.67972C1.01209 7.68012 1.01227 7.68061 1.01249 7.68117C1.01292 7.68229 1.01347 7.68371 1.01415 7.68543C1.01549 7.68887 1.01731 7.69351 1.01962 7.6993C1.02423 7.71089 1.03079 7.72711 1.0393 7.74766C1.05634 7.78874 1.08126 7.84716 1.11431 7.92044C1.18038 8.06691 1.27918 8.27327 1.41273 8.51958C1.67925 9.01112 2.08735 9.66768 2.6545 10.3263C3.78827 11.6428 5.58954 13 8.17641 13V12ZM1.47852 7.5C1.94548 7.67872 1.94542 7.6789 1.94536 7.67905C1.94535 7.67907 1.9453 7.67921 1.94528 7.67926C1.94524 7.67936 1.94523 7.67939 1.94524 7.67934C1.94528 7.67925 1.94543 7.67886 1.9457 7.67818C1.94623 7.67682 1.94722 7.67428 1.94868 7.67062C1.9516 7.66329 1.95638 7.65143 1.96305 7.63535C1.97638 7.60319 1.99725 7.55419 2.02586 7.49075C2.08313 7.36379 2.17122 7.17952 2.29183 6.95708C2.53363 6.51112 2.90296 5.91768 3.41226 5.32627C4.43138 4.14284 5.97906 3 8.17641 3V2C5.58954 2 3.78827 3.35716 2.6545 4.67373C2.08735 5.33232 1.67925 5.98888 1.41273 6.48042C1.27918 6.72673 1.18038 6.93309 1.11431 7.07956C1.08126 7.15284 1.05634 7.21126 1.0393 7.25234C1.03079 7.27289 1.02423 7.28911 1.01962 7.3007C1.01731 7.30649 1.01549 7.31113 1.01415 7.31457C1.01347 7.31629 1.01292 7.31771 1.01249 7.31883C1.01227 7.31939 1.01209 7.31988 1.01193 7.32028C1.01185 7.32049 1.01176 7.32074 1.01172 7.32084C1.01163 7.32107 1.01155 7.32128 1.47852 7.5ZM8.17641 3C10.3738 3 11.9214 4.14284 12.9406 5.32627C13.4499 5.91768 13.8192 6.51112 14.061 6.95708C14.1816 7.17952 14.2697 7.36379 14.327 7.49075C14.3556 7.55419 14.3765 7.60319 14.3898 7.63536C14.3965 7.65143 14.4012 7.66329 14.4042 7.67062C14.4056 7.67429 14.4066 7.67682 14.4072 7.67818C14.4074 7.67887 14.4076 7.67926 14.4076 7.67935C14.4076 7.67939 14.4076 7.67937 14.4076 7.67926C14.4076 7.67921 14.4075 7.67908 14.4075 7.67905C14.4074 7.6789 14.4074 7.67873 14.8743 7.5C15.3413 7.32127 15.3412 7.32106 15.3411 7.32084C15.3411 7.32073 15.341 7.32049 15.3409 7.32028C15.3408 7.31987 15.3406 7.31939 15.3404 7.31883C15.3399 7.31771 15.3394 7.31629 15.3387 7.31457C15.3374 7.31113 15.3355 7.30649 15.3332 7.30069C15.3286 7.2891 15.3221 7.27288 15.3135 7.25234C15.2965 7.21126 15.2716 7.15284 15.2385 7.07956C15.1725 6.93309 15.0737 6.72673 14.9401 6.48042C14.6736 5.98888 14.2655 5.33232 13.6983 4.67373C12.5646 3.35716 10.7633 2 8.17641 2V3ZM14.8743 7.5C14.4074 7.32127 14.4074 7.3211 14.4075 7.32095C14.4075 7.32092 14.4076 7.32079 14.4076 7.32074C14.4076 7.32063 14.4076 7.32061 14.4076 7.32065C14.4076 7.32074 14.4074 7.32113 14.4072 7.32182C14.4066 7.32318 14.4056 7.32571 14.4042 7.32938C14.4012 7.33671 14.3965 7.34857 14.3898 7.36464C14.3765 7.39681 14.3556 7.44581 14.327 7.50925C14.2697 7.63621 14.1816 7.82048 14.061 8.04292C13.8192 8.48888 13.4499 9.08232 12.9406 9.67373C11.9214 10.8572 10.3738 12 8.17641 12V13C10.7633 13 12.5646 11.6428 13.6983 10.3263C14.2655 9.66768 14.6736 9.01112 14.9401 8.51958C15.0737 8.27327 15.1725 8.06691 15.2385 7.92044C15.2716 7.84716 15.2965 7.78874 15.3135 7.74766C15.3221 7.72712 15.3286 7.7109 15.3332 7.69931C15.3355 7.69351 15.3374 7.68887 15.3387 7.68543C15.3394 7.68371 15.3399 7.68229 15.3404 7.68117C15.3406 7.68061 15.3408 7.68013 15.3409 7.67972C15.341 7.67951 15.3411 7.67927 15.3411 7.67916C15.3412 7.67894 15.3413 7.67873 14.8743 7.5ZM8.17642 9C7.41622 9 6.76274 8.34944 6.76274 7.5H5.76274C5.76274 8.8597 6.82282 10 8.17642 10V9ZM9.59011 7.5C9.59011 8.34944 8.93662 9 8.17642 9V10C9.53003 10 10.5901 8.8597 10.5901 7.5H9.59011ZM8.17642 6C8.93662 6 9.59011 6.65056 9.59011 7.5H10.5901C10.5901 6.1403 9.53003 5 8.17642 5V6ZM8.17642 5C6.82282 5 5.76274 6.1403 5.76274 7.5H6.76274C6.76274 6.65056 7.41622 6 8.17642 6V5Z" fill="#F2AC29"/>
</svg>
