<svg width="16" height="15" viewBox="0 0 16 15" fill="none" xmlns="http://www.w3.org/2000/svg">
<path d="M1.47852 5.5L1.17941 5.09933L0.978516 5.2493V5.5H1.47852ZM8.17642 0.5L8.47553 0.0993282C8.29812 -0.0331094 8.05473 -0.0331094 7.87732 0.0993282L8.17642 0.5ZM14.8743 5.5H15.3743V5.2493L15.1734 5.09933L14.8743 5.5ZM3.3922 8.5V8H2.8922V8.5H3.3922ZM7.21958 8.5H7.71958V8H7.21958V8.5ZM1.97852 15V5.5H0.978516V15H1.97852ZM1.77762 5.90067L8.47553 0.900672L7.87732 0.0993282L1.17941 5.09933L1.77762 5.90067ZM7.87732 0.900672L14.5752 5.90067L15.1734 5.09933L8.47553 0.0993282L7.87732 0.900672ZM14.3743 5.5V15H15.3743V5.5H14.3743ZM3.8922 15V8.5H2.8922V15H3.8922ZM3.3922 9H7.21958V8H3.3922V9ZM6.71958 8.5V15H7.71958V8.5H6.71958ZM5.78431 12H7.21958V11H5.78431V12ZM11.5038 8V12H12.5038V8H11.5038ZM13.4175 2V4.5H14.4175V2H13.4175Z" fill="#F2AC29"/>
</svg>
