<svg width="16" height="15" viewBox="0 0 16 15" fill="none" xmlns="http://www.w3.org/2000/svg">
<path d="M1.47852 10.5H14.8743M1.47852 7.5L5.30589 3.5L12.0038 10.5M2.43536 0.5H13.9175C14.4459 0.5 14.8743 0.947715 14.8743 1.5V13.5C14.8743 14.0523 14.4459 14.5 13.9175 14.5H2.43536C1.90691 14.5 1.47852 14.0523 1.47852 13.5V1.5C1.47852 0.947716 1.90691 0.5 2.43536 0.5ZM11.047 5.5C10.5185 5.5 10.0901 5.05228 10.0901 4.5C10.0901 3.94772 10.5185 3.5 11.047 3.5C11.5754 3.5 12.0038 3.94772 12.0038 4.5C12.0038 5.05228 11.5754 5.5 11.047 5.5Z" stroke="#F2AC29" stroke-linejoin="round"/>
</svg>
