<svg width="16" height="15" viewBox="0 0 16 15" fill="none" xmlns="http://www.w3.org/2000/svg">
<path d="M7.21958 3V2C7.21958 1.17157 6.57699 0.5 5.78431 0.5C4.99164 0.5 4.34905 1.17157 4.34905 2V3C4.34905 3.82843 4.99164 4.5 5.78431 4.5C6.57699 4.5 7.21958 3.82843 7.21958 3Z" stroke="#F2AC29"/>
<path d="M12.0038 3V2C12.0038 1.17157 11.3612 0.5 10.5685 0.5C9.77586 0.5 9.13327 1.17157 9.13327 2V3C9.13327 3.82843 9.77586 4.5 10.5685 4.5C11.3612 4.5 12.0038 3.82843 12.0038 3Z" stroke="#F2AC29"/>
<path d="M14.8743 7.5V7C14.8743 6.17157 14.2317 5.5 13.4391 5.5C12.6464 5.5 12.0038 6.17157 12.0038 7V7.5C12.0038 8.32843 12.6464 9 13.4391 9C14.2317 9 14.8743 8.32843 14.8743 7.5Z" stroke="#F2AC29"/>
<path d="M4.34905 7.5V7C4.34905 6.17157 3.70646 5.5 2.91378 5.5C2.12111 5.5 1.47852 6.17157 1.47852 7V7.5C1.47852 8.32843 2.12111 9 2.91378 9C3.70646 9 4.34905 8.32843 4.34905 7.5Z" stroke="#F2AC29"/>
<path d="M3.73226 11.6399L6.52418 8.09678C7.38036 7.01025 8.97249 7.01025 9.82867 8.09678L12.6206 11.6399C13.5195 12.7806 12.743 14.5 11.3291 14.5C11.1435 14.5 10.9606 14.4549 10.7946 14.3681L10.4505 14.1883C9.01893 13.4403 7.33392 13.4403 5.90237 14.1883L5.55823 14.3681C5.39228 14.4549 5.2093 14.5 5.02378 14.5C3.60981 14.5 2.8334 12.7806 3.73226 11.6399Z" stroke="#F2AC29"/>
</svg>
