<svg width="16" height="15" viewBox="0 0 16 15" fill="none" xmlns="http://www.w3.org/2000/svg">
<path d="M12.4822 14.5H14.8743V13C14.8743 11.6193 13.8033 10.5 12.4822 10.5M9.13327 3.49804C9.13327 5.15396 7.84823 6.49609 6.26274 6.49609C4.67725 6.49609 3.3922 5.15396 3.3922 3.49804C3.3922 1.84212 4.67725 0.5 6.26274 0.5C7.84823 0.5 9.13327 1.84212 9.13327 3.49804ZM11.047 14.4909H1.47852C1.47852 13.7808 1.47852 13.1053 1.47852 12.4936C1.47852 10.8368 2.7637 9.49414 4.34905 9.49414H8.17642C9.76178 9.49414 11.047 10.8368 11.047 12.4936C11.047 13.1053 11.047 13.7808 11.047 14.4909ZM12.0038 8.5C10.9469 8.5 10.0901 7.60457 10.0901 6.5C10.0901 5.39543 10.9469 4.5 12.0038 4.5C13.0607 4.5 13.9175 5.39543 13.9175 6.5C13.9175 7.60457 13.0607 8.5 12.0038 8.5Z" stroke="#F2AC29"/>
</svg>
