<svg width="173" height="54" viewBox="0 0 173 54" fill="none" xmlns="http://www.w3.org/2000/svg">
<path d="M24.9523 45.7083C21.4564 45.7083 18.4939 44.4597 16.0648 41.9625C13.6342 39.4666 12.4189 36.4375 12.4189 32.875C12.4189 30.5291 12.8023 28.1423 13.5689 25.7145C14.3328 23.2868 15.3245 21.077 16.5439 19.0854C17.7634 17.0937 19.1148 15.4638 20.5981 14.1958C22.0814 12.9277 23.5356 12.2937 24.9606 12.2937C26.3953 12.2937 27.8544 12.9201 29.3377 14.1729C30.821 15.4256 32.1703 17.0472 33.3856 19.0375C34.6009 21.0277 35.5905 23.2451 36.3544 25.6895C37.1183 28.134 37.5002 30.5291 37.5002 32.875C37.5002 36.4375 36.2828 39.4666 33.8481 41.9625C31.412 44.4583 28.4467 45.7062 24.9523 45.7062M24.9606 43.6229C27.8689 43.6229 30.3384 42.5812 32.3689 40.4979C34.3995 38.4145 35.4155 35.8826 35.4169 32.902C35.4169 30.8576 35.0849 28.7486 34.421 26.575C33.7571 24.4 32.9134 22.4104 31.8898 20.6062C30.8662 18.802 29.7363 17.3131 28.5002 16.1395C27.2641 14.9659 26.0835 14.3784 24.9585 14.377C23.828 14.377 22.6467 14.9645 21.4148 16.1395C20.1828 17.3145 19.0551 18.8111 18.0314 20.6291C17.0078 22.4472 16.1634 24.443 15.4981 26.6166C14.8328 28.7902 14.5009 30.8805 14.5023 32.8875C14.5023 35.875 15.5183 38.4111 17.5502 40.4958C19.5821 42.5805 22.0523 43.6229 24.9606 43.6229ZM27.0835 39.4562C27.378 39.4562 27.6252 39.3562 27.8252 39.1562C28.0252 38.9562 28.1252 38.709 28.1252 38.4145C28.1252 38.1201 28.0252 37.8729 27.8252 37.6729C27.6252 37.4729 27.378 37.3729 27.0835 37.3729C25.0585 37.3729 23.3363 36.6645 21.9169 35.2479C20.5002 33.8298 19.7919 32.1076 19.7919 30.0812C19.7919 29.7868 19.6919 29.5395 19.4919 29.3395C19.2919 29.1395 19.0439 29.0395 18.7481 29.0395C18.4523 29.0395 18.2051 29.1395 18.0064 29.3395C17.8078 29.5395 17.7085 29.7868 17.7085 30.0812C17.7085 32.6756 18.6224 34.8868 20.4502 36.7145C22.278 38.5423 24.4891 39.4562 27.0835 39.4562Z" fill="#F2AC29"/>
<path d="M53 39.4C51 39.4 49.3067 38.9867 47.92 38.16C46.5333 37.3333 45.48 36.2 44.76 34.76C44.0667 33.2933 43.72 31.64 43.72 29.8C43.72 27.9867 44.0533 26.2267 44.72 24.52C45.4133 22.8133 46.44 21.4133 47.8 20.32C49.1867 19.2267 50.8667 18.68 52.84 18.68C54.1467 18.68 55.36 18.9333 56.48 19.44C57.6 19.9467 58.48 20.6667 59.12 21.6C59.7867 22.5333 60.12 23.6133 60.12 24.84C60.12 26.8133 59.28 28.3467 57.6 29.44C55.92 30.5067 53.6 31.0267 50.64 31L46.24 30.96C46.48 33.0133 47.16 34.5733 48.28 35.64C49.4267 36.7067 51 37.24 53 37.24C54.2 37.24 55.3067 37.08 56.32 36.76C57.36 36.4133 58.36 35.8933 59.32 35.2L60.52 36.8C59.5067 37.6 58.3467 38.24 57.04 38.72C55.76 39.1733 54.4133 39.4 53 39.4ZM51.16 28.92C55.5333 28.92 57.72 27.5467 57.72 24.8C57.72 23.4667 57.2533 22.48 56.32 21.84C55.4133 21.1733 54.2933 20.84 52.96 20.84C51.4667 20.84 50.2 21.2667 49.16 22.12C48.1467 22.9733 47.3867 24.0267 46.88 25.28C46.3733 26.5333 46.12 27.7467 46.12 28.92H51.16ZM74.7516 50.16C73.6316 50.16 72.6049 49.8933 71.6716 49.36C70.7382 48.8267 70.0049 48.0933 69.4716 47.16C68.9382 46.2533 68.6716 45.24 68.6716 44.12C68.6716 42.0933 69.4316 40.4533 70.9516 39.2C68.8982 38.72 67.2316 37.5333 65.9516 35.64C64.6982 33.72 64.0716 31.4533 64.0716 28.84C64.0716 26.7867 64.4849 24.9867 65.3116 23.44C66.1382 21.8933 67.2982 20.6933 68.7916 19.84C70.3116 18.9867 72.0582 18.56 74.0316 18.56C75.0716 18.56 75.8049 18.6 76.2316 18.68L78.6316 18.96H80.9116V43.64C80.9116 45.5867 80.3382 47.16 79.1916 48.36C78.0716 49.56 76.5916 50.16 74.7516 50.16ZM72.3916 37.12C73.6182 37.12 74.8182 36.6533 75.9916 35.72C76.7382 35.1333 77.3382 34.48 77.7916 33.76C78.2716 33.04 78.5116 32.3867 78.5116 31.8V21.08L74.8716 20.88H73.5516C72.2182 20.88 71.0049 21.24 69.9116 21.96C68.8449 22.6533 68.0049 23.6267 67.3916 24.88C66.7782 26.1067 66.4716 27.4933 66.4716 29.04C66.4716 30.5067 66.7382 31.8667 67.2716 33.12C67.8049 34.3467 68.5249 35.32 69.4316 36.04C70.3382 36.76 71.3249 37.12 72.3916 37.12ZM74.9516 47.84C76.0182 47.84 76.8582 47.4667 77.4716 46.72C78.1116 45.9733 78.4582 44.9067 78.5116 43.52V35.76C78.4582 35.8133 78.2582 36.0933 77.9116 36.6C77.5916 37.08 77.2049 37.5067 76.7516 37.88C76.2716 38.3067 75.5116 38.8133 74.4716 39.4C73.7516 39.8267 73.3382 40.08 73.2316 40.16C71.8449 41.04 71.1516 42.3467 71.1516 44.08C71.1516 45.1467 71.5116 46.04 72.2316 46.76C72.9782 47.48 73.8849 47.84 74.9516 47.84ZM96.5094 50.16C95.3894 50.16 94.3627 49.8933 93.4294 49.36C92.496 48.8267 91.7627 48.0933 91.2294 47.16C90.696 46.2533 90.4294 45.24 90.4294 44.12C90.4294 42.0933 91.1894 40.4533 92.7094 39.2C90.656 38.72 88.9894 37.5333 87.7094 35.64C86.456 33.72 85.8294 31.4533 85.8294 28.84C85.8294 26.7867 86.2427 24.9867 87.0694 23.44C87.896 21.8933 89.056 20.6933 90.5494 19.84C92.0694 18.9867 93.816 18.56 95.7894 18.56C96.8294 18.56 97.5627 18.6 97.9894 18.68L100.389 18.96H102.669V43.64C102.669 45.5867 102.096 47.16 100.949 48.36C99.8294 49.56 98.3494 50.16 96.5094 50.16ZM94.1494 37.12C95.376 37.12 96.576 36.6533 97.7494 35.72C98.496 35.1333 99.096 34.48 99.5494 33.76C100.029 33.04 100.269 32.3867 100.269 31.8V21.08L96.6294 20.88H95.3094C93.976 20.88 92.7627 21.24 91.6694 21.96C90.6027 22.6533 89.7627 23.6267 89.1494 24.88C88.536 26.1067 88.2294 27.4933 88.2294 29.04C88.2294 30.5067 88.496 31.8667 89.0294 33.12C89.5627 34.3467 90.2827 35.32 91.1894 36.04C92.096 36.76 93.0827 37.12 94.1494 37.12ZM96.7094 47.84C97.776 47.84 98.616 47.4667 99.2294 46.72C99.8694 45.9733 100.216 44.9067 100.269 43.52V35.76C100.216 35.8133 100.016 36.0933 99.6694 36.6C99.3494 37.08 98.9627 37.5067 98.5094 37.88C98.0294 38.3067 97.2694 38.8133 96.2294 39.4C95.5094 39.8267 95.096 40.08 94.9894 40.16C93.6027 41.04 92.9094 42.3467 92.9094 44.08C92.9094 45.1467 93.2694 46.04 93.9894 46.76C94.736 47.48 95.6427 47.84 96.7094 47.84ZM115.867 39.4C114.534 39.4 113.241 39.32 111.987 39.16C110.681 39 109.694 38.8133 109.027 38.6V9.96H111.427V21.68C112.094 20.6667 112.961 19.92 114.027 19.44C115.121 18.9333 116.281 18.68 117.507 18.68C119.187 18.68 120.667 19.12 121.947 20C123.254 20.88 124.254 22.1067 124.947 23.68C125.667 25.2533 126.027 27.04 126.027 29.04C126.027 32.0533 125.187 34.5333 123.507 36.48C121.854 38.4267 119.307 39.4 115.867 39.4ZM115.827 37.24C118.627 37.24 120.627 36.4933 121.827 35C123.027 33.48 123.627 31.5067 123.627 29.08C123.627 27.3467 123.347 25.8667 122.787 24.64C122.254 23.3867 121.507 22.44 120.547 21.8C119.614 21.16 118.561 20.84 117.387 20.84C116.027 20.84 114.761 21.2533 113.587 22.08C112.281 22.9867 111.561 24.2533 111.427 25.88V36.88L113.547 37.12C114.241 37.2 115.001 37.24 115.827 37.24ZM150.551 37.6C150.337 38.0533 149.964 38.44 149.431 38.76C148.897 39.0533 148.297 39.2 147.631 39.2C146.564 39.2 145.684 38.8667 144.991 38.2C144.297 37.5333 143.951 36.6667 143.951 35.6V25.56C143.951 22.36 142.511 20.76 139.631 20.76C138.271 20.76 137.111 21.1067 136.151 21.8C135.191 22.4667 134.204 23.48 133.191 24.84V39H130.791V24.96C130.791 22.8533 130.231 21.3067 129.111 20.32L130.711 18.72C131.191 19.0133 131.644 19.4667 132.071 20.08C132.524 20.6933 132.844 21.36 133.031 22.08C133.937 20.8533 134.937 19.9733 136.031 19.44C137.151 18.88 138.417 18.6 139.831 18.6C141.777 18.6 143.324 19.1067 144.471 20.12C145.617 21.1067 146.244 22.5733 146.351 24.52V35.64C146.351 36.0133 146.471 36.3333 146.711 36.6C146.977 36.84 147.284 36.96 147.631 36.96C148.164 36.96 148.551 36.7333 148.791 36.28L150.551 37.6ZM161.062 39.4C159.729 39.4 158.436 39.32 157.183 39.16C155.876 39 154.889 38.8133 154.223 38.6V9.96H156.623V21.68C157.289 20.6667 158.156 19.92 159.223 19.44C160.316 18.9333 161.476 18.68 162.703 18.68C164.383 18.68 165.863 19.12 167.143 20C168.449 20.88 169.449 22.1067 170.143 23.68C170.863 25.2533 171.223 27.04 171.223 29.04C171.223 32.0533 170.383 34.5333 168.703 36.48C167.049 38.4267 164.503 39.4 161.062 39.4ZM161.023 37.24C163.823 37.24 165.823 36.4933 167.023 35C168.223 33.48 168.823 31.5067 168.823 29.08C168.823 27.3467 168.543 25.8667 167.983 24.64C167.449 23.3867 166.703 22.44 165.743 21.8C164.809 21.16 163.756 20.84 162.583 20.84C161.223 20.84 159.956 21.2533 158.783 22.08C157.476 22.9867 156.756 24.2533 156.623 25.88V36.88L158.743 37.12C159.436 37.2 160.196 37.24 161.023 37.24Z" fill="#F2AC29"/>
</svg>
