<svg width="24" height="24" viewBox="0 0 24 24" fill="none" xmlns="http://www.w3.org/2000/svg">
<path d="M14.5559 13.2498C14.0502 13.724 13.3798 13.9829 12.6867 13.9718C11.9935 13.9606 11.3318 13.6803 10.8416 13.1901C10.3514 12.6999 10.0711 12.0382 10.0599 11.345C10.0488 10.6519 10.3077 9.98152 10.7819 9.4758L13.1409 7.1158C13.6172 6.64007 14.2557 6.36183 14.9284 6.33679C15.6012 6.31176 16.2585 6.54178 16.7689 6.9808M16.4439 3.8138C16.6902 3.5591 16.9847 3.35598 17.3102 3.21627C17.6358 3.07657 17.9859 3.00308 18.3402 3.00009C18.6945 2.99711 19.0458 3.06469 19.3737 3.19888C19.7016 3.33308 19.9995 3.53122 20.25 3.78173C20.5005 4.03225 20.6986 4.33013 20.8328 4.65802C20.967 4.9859 21.0346 5.33722 21.0316 5.69149C21.0286 6.04576 20.9551 6.39589 20.8154 6.72147C20.6757 7.04704 20.4726 7.34155 20.2179 7.5878L17.8589 9.9478C17.3826 10.4235 16.7441 10.7018 16.0714 10.7268C15.3986 10.7518 14.7413 10.5218 14.2309 10.0828" stroke="#F2AC29" stroke-width="1.5" stroke-linecap="round" stroke-linejoin="round"/>
<path d="M21 13.0318C21 16.8028 21 18.6888 19.828 19.8598C18.656 21.0308 16.771 21.0318 13 21.0318H11C7.229 21.0318 5.343 21.0318 4.172 19.8598C3.001 18.6878 3 16.8028 3 13.0318V11.0318C3 7.2608 3 5.3748 4.172 4.2038C5.344 3.0328 7.229 3.0318 11 3.0318" stroke="#F2AC29" stroke-width="1.5" stroke-linecap="round" stroke-linejoin="round"/>
</svg>
