<svg width="54" height="41" viewBox="0 0 54 41" fill="none" xmlns="http://www.w3.org/2000/svg">
<path d="M53.0043 18.9756C54.809 23.934 50.5827 30.0356 43.5777 32.5852L42.7599 30.3383C48.0507 28.4126 51.1929 23.876 49.8298 20.131L53.0043 18.9756ZM0.992866 20.9419C-0.811827 15.9835 3.41444 9.88186 10.4195 7.33223L11.2373 9.57922C5.9465 11.5049 2.8043 16.0415 4.16736 19.7864L0.992866 20.9419ZM14.346 11.5353L7.14005 21.9616C2.08109 29.2655 4.93262 37.1 13.5028 39.4432C22.073 41.7864 33.1414 37.7579 38.2004 30.454L49.2971 14.3874C50.0779 13.3059 49.6472 12.1225 48.343 11.7659C48.0338 11.681 47.6915 11.6489 47.3358 11.6714C46.98 11.694 46.6178 11.7708 46.2698 11.8975C45.9219 12.0241 45.595 12.1981 45.308 12.4095C45.0209 12.6209 44.7794 12.8655 44.5971 13.1293L37.6528 23.1551L35.7631 22.6384L46.0381 7.80388C46.808 6.69243 46.3773 5.50901 45.0731 5.15244C43.7689 4.79586 42.0759 5.41208 41.2849 6.53124L32.1786 19.7698L30.3203 19.2078L41.1029 3.59479C41.8727 2.48333 41.442 1.29992 40.1378 0.943343C38.8337 0.586764 37.1618 1.19529 36.3919 2.30674L25.567 17.9351L23.6828 17.4334L32.3347 4.9879C33.1257 3.86875 32.695 2.68533 31.3697 2.33646C30.0444 1.98758 28.3936 2.5884 27.6238 3.69985L15.652 20.9841C17.3355 21.6766 18.4858 22.8879 18.8873 24.3909C19.2887 25.8939 18.9136 27.5852 17.8324 29.1477L15.9427 28.631C16.825 27.3556 17.077 25.9704 16.6436 24.7794C16.2101 23.5885 15.1266 22.6894 13.6309 22.2795L12.6994 22.0248L19.0938 12.7929C19.8636 11.6815 19.4329 10.4981 18.1287 10.1415C16.8089 9.80761 15.137 10.4161 14.346 11.5353Z" fill="#F2AC29"/>
</svg>
