<svg width="30" height="30" viewBox="0 0 30 30" fill="none" xmlns="http://www.w3.org/2000/svg">
<g clip-path="url(#clip0_532_1267)">
<path fill-rule="evenodd" clip-rule="evenodd" d="M15.58 0.185994C15.4106 0.0654097 15.2079 0.000610352 15 0.000610352C14.7921 0.000610352 14.5894 0.0654097 14.42 0.185994L0.42 10.186C0.290209 10.2784 0.184378 10.4005 0.111322 10.5421C0.0382652 10.6837 9.82426e-05 10.8407 0 11L0 29C0 29.2652 0.105357 29.5196 0.292893 29.7071C0.48043 29.8946 0.734784 30 1 30H4V16H14V30H29C29.2652 30 29.5196 29.8946 29.7071 29.7071C29.8946 29.5196 30 29.2652 30 29V11C29.9999 10.8407 29.9617 10.6837 29.8887 10.5421C29.8156 10.4005 29.7098 10.2784 29.58 10.186L28 9.05599V3.99999H26V7.62799L15.58 0.185994ZM22 24V16H24V24H22Z" fill="#FFC700"/>
<path d="M12 30V24H10V22H12V18H6V30H12Z" fill="#FFC700"/>
</g>
<defs>
<clipPath id="clip0_532_1267">
<rect width="30" height="30" fill="white"/>
</clipPath>
</defs>
</svg>
