<svg width="30" height="30" viewBox="0 0 30 30" fill="none" xmlns="http://www.w3.org/2000/svg">
<g clip-path="url(#clip0_447_1520)">
<path d="M1 11L0.42 10.186L0 10.486V11H1ZM15 0.999994L15.58 0.185994C15.4106 0.0654097 15.2079 0.000610352 15 0.000610352C14.7921 0.000610352 14.5894 0.0654097 14.42 0.185994L15 0.999994ZM29 11H30V10.486L29.58 10.186L29 11ZM5 17V16H4V17H5ZM13 17H14V16H13V17ZM2 30V11H0L0 30H2ZM1.58 11.814L15.58 1.81399L14.42 0.185994L0.42 10.186L1.58 11.814ZM14.42 1.81399L28.42 11.814L29.58 10.186L15.58 0.185994L14.42 1.81399ZM28 11V30H30V11H28ZM6 30V17H4V30H6ZM5 18H13V16H5V18ZM12 17V30H14V17H12ZM10 24H13V22H10V24ZM22 16V24H24V16H22ZM26 3.99999V8.99999H28V3.99999H26Z" fill="white"/>
</g>
<defs>
<clipPath id="clip0_447_1520">
<rect width="30" height="30" fill="white"/>
</clipPath>
</defs>
</svg>
