<svg width="50" height="50" viewBox="0 0 50 50" fill="none" xmlns="http://www.w3.org/2000/svg">
<path d="M25 33.333H29.167M25 18.75V43.75M25 41.667H29.167" stroke="#F2AC29" stroke-width="2" stroke-linecap="round" stroke-linejoin="round"/>
<path d="M24.999 18.75C24.999 19.8549 24.5601 20.9145 23.7788 21.6958C22.9975 22.4771 21.9379 22.916 20.833 22.916C19.7281 22.916 18.6685 22.4771 17.8872 21.6958C17.1059 20.9145 16.667 19.8549 16.667 18.75C16.667 17.6451 17.1059 16.5855 17.8872 15.8042C18.6685 15.0229 19.7281 14.584 20.833 14.584C21.9379 14.584 22.9975 15.0229 23.7788 15.8042C24.5601 16.5855 24.999 17.6451 24.999 18.75ZM24.999 18.75C24.999 18.2028 25.1078 17.6609 25.3172 17.1554C25.5266 16.6498 25.8335 16.1904 26.2205 15.8035C26.6074 15.4166 27.0668 15.1096 27.5723 14.9002C28.0779 14.6908 28.6198 14.583 29.167 14.583C30.2721 14.583 31.332 15.022 32.1135 15.8035C32.895 16.585 33.334 17.6449 33.334 18.75C33.334 19.8552 32.895 20.9151 32.1135 21.6965C31.332 22.478 30.2721 22.917 29.167 22.917C28.6198 22.917 28.0779 22.8092 27.5723 22.5998C27.0668 22.3904 26.6074 22.0835 26.2205 21.6965C25.8335 21.3096 25.5266 20.8502 25.3172 20.3447C25.1078 19.8391 24.999 19.2972 24.999 18.75ZM25 6.25001C25.5526 6.24145 26.1013 6.34289 26.6143 6.54844C27.1274 6.75398 27.5943 7.05952 27.9881 7.44726C28.3819 7.83501 28.6947 8.29721 28.9081 8.80697C29.1216 9.31673 29.2315 9.86386 29.2315 10.4165C29.2315 10.9692 29.1216 11.5163 28.9081 12.0261C28.6947 12.5358 28.3819 12.998 27.9881 13.3858C27.5943 13.7735 27.1274 14.079 26.6143 14.2846C26.1013 14.4901 25.5526 14.5916 25 14.583C23.9061 14.5661 22.8628 14.1196 22.0953 13.3401C21.3278 12.5606 20.8975 11.5105 20.8975 10.4165C20.8975 9.32254 21.3278 8.27244 22.0953 7.49291C22.8628 6.71338 23.9061 6.26696 25 6.25001Z" stroke="#F2AC29" stroke-width="2" stroke-linecap="round" stroke-linejoin="round"/>
</svg>
