<svg width="35" height="35" viewBox="0 0 35 35" fill="none" xmlns="http://www.w3.org/2000/svg">
<path d="M19.6875 11.6667H24.0625L19.6875 16.0417H24.0625M26.25 2.91669H32.0833L26.25 8.75002H32.0833" fill="#F2AC29"/>
<path d="M19.6875 11.6667H24.0625L19.6875 16.0417H24.0625M26.25 2.91669H32.0833L26.25 8.75002H32.0833" stroke="#F2AC29" stroke-width="1.5" stroke-linecap="round" stroke-linejoin="round"/>
<path d="M30.9894 17.5C30.9894 21.0777 29.5682 24.5088 27.0384 27.0386C24.5086 29.5684 21.0775 30.9896 17.4998 30.9896V33.1771C26.158 33.1771 33.1769 26.1581 33.1769 17.5H30.9894ZM17.4998 30.9896C13.9222 30.9896 10.491 29.5684 7.96126 27.0386C5.43147 24.5088 4.01025 21.0777 4.01025 17.5H1.82275C1.82275 26.1581 8.84171 33.1771 17.4998 33.1771V30.9896ZM4.01025 17.5C4.01025 13.9224 5.43147 10.4912 7.96126 7.96144C10.491 5.43166 13.9222 4.01044 17.4998 4.01044V1.82294C8.84171 1.82294 1.82275 8.8419 1.82275 17.5H4.01025ZM22.604 20.7813C20.3801 20.7813 18.2472 19.8978 16.6746 18.3252C15.102 16.7527 14.2186 14.6198 14.2186 12.3959H12.0311C12.0311 15.2 13.145 17.8892 15.1278 19.872C17.1106 21.8548 19.7999 22.9688 22.604 22.9688V20.7813ZM29.7863 16.7256C29.0405 17.9636 27.9872 18.9877 26.7287 19.6984C25.4702 20.409 24.0493 20.782 22.604 20.7813V22.9688C24.4261 22.9697 26.2175 22.4996 27.8043 21.604C29.3911 20.7084 30.7194 19.4177 31.6603 17.8573L29.7863 16.7256ZM14.2186 12.3959C14.218 10.9506 14.5911 9.52974 15.3017 8.27126C16.0123 7.01278 17.0363 5.95945 18.2742 5.21356L17.1425 3.34106C15.5823 4.28167 14.2917 5.60971 13.396 7.19626C12.5004 8.78281 12.0302 10.574 12.0311 12.3959H14.2186ZM17.4998 4.01044C17.3519 4.00695 17.2114 3.94509 17.109 3.83835C17.0464 3.77745 17.0045 3.69835 16.9894 3.61231C16.9836 3.5671 16.9865 3.43585 17.1425 3.34106L18.2742 5.21356C19.0078 4.77023 19.244 3.95794 19.158 3.31919C19.0675 2.65565 18.5455 1.82294 17.4998 1.82294V4.01044ZM31.6603 17.8573C31.564 18.0134 31.4328 18.0163 31.3875 18.0104C31.3015 17.9953 31.2224 17.9535 31.1615 17.8909C31.0548 17.7884 30.9929 17.6479 30.9894 17.5H33.1769C33.1769 16.4544 32.3442 15.9323 31.6807 15.8419C31.0419 15.7559 30.2296 15.9921 29.7863 16.7256L31.6603 17.8573Z" fill="#F2AC29"/>
</svg>
