<svg width="35" height="35" viewBox="0 0 35 35" fill="none" xmlns="http://www.w3.org/2000/svg">
<g clip-path="url(#clip0_447_1466)">
<path d="M31.5002 20.4167C31.4994 16.5492 29.9627 12.8403 27.228 10.1056C24.4932 7.37082 20.7843 5.83412 16.9168 5.83334V8.75001C19.2241 8.75054 21.4794 9.4349 23.3978 10.7166C25.3162 11.9984 26.8118 13.82 27.6954 15.9513C28.2818 17.367 28.5836 18.8843 28.5835 20.4167H31.5002ZM2.3335 17.5V10.2083C2.3335 9.82157 2.48714 9.45064 2.76063 9.17715C3.03412 8.90366 3.40506 8.75001 3.79183 8.75001H11.0835C11.4703 8.75001 11.8412 8.90366 12.1147 9.17715C12.3882 9.45064 12.5418 9.82157 12.5418 10.2083V16.0417C12.5418 16.4285 12.3882 16.7994 12.1147 17.0729C11.8412 17.3464 11.4703 17.5 11.0835 17.5H8.16683C8.16683 20.5942 9.39599 23.5617 11.5839 25.7496C13.7718 27.9375 16.7393 29.1667 19.8335 29.1667V26.25C19.8335 25.8632 19.9871 25.4923 20.2606 25.2188C20.5341 24.9453 20.9051 24.7917 21.2918 24.7917H27.1252C27.5119 24.7917 27.8829 24.9453 28.1564 25.2188C28.4299 25.4923 28.5835 25.8632 28.5835 26.25V33.5417C28.5835 33.9285 28.4299 34.2994 28.1564 34.5729C27.8829 34.8464 27.5119 35 27.1252 35H19.8335C10.1691 35 2.3335 27.1644 2.3335 17.5Z" fill="#F2AC29"/>
<path d="M25.0005 17.0684C25.4407 18.1298 25.6672 19.2676 25.667 20.4167H23.042C23.0422 19.6123 22.8839 18.8157 22.5761 18.0725C22.2684 17.3293 21.8172 16.654 21.2484 16.0852C20.6797 15.5164 20.0044 15.0653 19.2612 14.7575C18.5179 14.4498 17.7214 14.2915 16.917 14.2917V11.6667C18.6475 11.6668 20.3392 12.18 21.778 13.1415C23.2169 14.103 24.3383 15.4695 25.0005 17.0684Z" fill="#F2AC29"/>
</g>
<defs>
<clipPath id="clip0_447_1466">
<rect width="35" height="35" fill="white"/>
</clipPath>
</defs>
</svg>
