<svg width="28" height="30" viewBox="0 0 28 30" fill="none" xmlns="http://www.w3.org/2000/svg">
<path d="M14 14.25C12.6739 14.25 11.4021 13.8549 10.4645 13.1517C9.52678 12.4484 9 11.4946 9 10.5C9 9.50544 9.52678 8.55161 10.4645 7.84835C11.4021 7.14509 12.6739 6.75 14 6.75C15.3261 6.75 16.5979 7.14509 17.5355 7.84835C18.4732 8.55161 19 9.50544 19 10.5C19 10.9925 18.8707 11.4801 18.6194 11.9351C18.3681 12.39 17.9998 12.8034 17.5355 13.1517C17.0712 13.4999 16.52 13.7761 15.9134 13.9645C15.3068 14.153 14.6566 14.25 14 14.25ZM14 0C10.287 0 6.72601 1.10625 4.1005 3.07538C1.475 5.04451 0 7.71523 0 10.5C0 18.375 14 30 14 30C14 30 28 18.375 28 10.5C28 7.71523 26.525 5.04451 23.8995 3.07538C21.274 1.10625 17.713 0 14 0Z" fill="#F2AC29"/>
</svg>
