<svg width="35" height="35" viewBox="0 0 35 35" fill="none" xmlns="http://www.w3.org/2000/svg">
<path d="M8.20312 4.375C7.18784 4.375 6.21414 4.77832 5.49623 5.49623C4.77832 6.21414 4.375 7.18784 4.375 8.20312V25.1562C4.375 26.6067 4.95117 27.9977 5.97676 29.0232C7.00235 30.0488 8.39335 30.625 9.84375 30.625H25.1562C26.6067 30.625 27.9977 30.0488 29.0232 29.0232C30.0488 27.9977 30.625 26.6067 30.625 25.1562V21.875H24.0625V8.20312C24.0625 7.18784 23.6592 6.21414 22.9413 5.49623C22.2234 4.77832 21.2497 4.375 20.2344 4.375H8.20312ZM24.0625 24.0625H28.4375V25.1562C28.4375 26.0265 28.0918 26.8611 27.4764 27.4764C26.8611 28.0918 26.0265 28.4375 25.1562 28.4375H24.0625V24.0625ZM6.5625 8.20312C6.5625 7.768 6.73535 7.3507 7.04303 7.04303C7.3507 6.73535 7.768 6.5625 8.20312 6.5625H20.2344C20.6695 6.5625 21.0868 6.73535 21.3945 7.04303C21.7021 7.3507 21.875 7.768 21.875 8.20312V28.4375H9.84375C8.97351 28.4375 8.13891 28.0918 7.52356 27.4764C6.9082 26.8611 6.5625 26.0265 6.5625 25.1562V8.20312ZM9.84375 12.0312C9.84375 11.7412 9.95898 11.463 10.1641 11.2579C10.3692 11.0527 10.6474 10.9375 10.9375 10.9375H17.5C17.7901 10.9375 18.0683 11.0527 18.2734 11.2579C18.4785 11.463 18.5938 11.7412 18.5938 12.0312C18.5938 12.3213 18.4785 12.5995 18.2734 12.8046C18.0683 13.0098 17.7901 13.125 17.5 13.125H10.9375C10.6474 13.125 10.3692 13.0098 10.1641 12.8046C9.95898 12.5995 9.84375 12.3213 9.84375 12.0312ZM9.84375 17.5C9.84375 17.2099 9.95898 16.9317 10.1641 16.7266C10.3692 16.5215 10.6474 16.4062 10.9375 16.4062H17.5C17.7901 16.4062 18.0683 16.5215 18.2734 16.7266C18.4785 16.9317 18.5938 17.2099 18.5938 17.5C18.5938 17.7901 18.4785 18.0683 18.2734 18.2734C18.0683 18.4785 17.7901 18.5938 17.5 18.5938H10.9375C10.6474 18.5938 10.3692 18.4785 10.1641 18.2734C9.95898 18.0683 9.84375 17.7901 9.84375 17.5ZM10.9375 21.875C10.6474 21.875 10.3692 21.9902 10.1641 22.1954C9.95898 22.4005 9.84375 22.6787 9.84375 22.9688C9.84375 23.2588 9.95898 23.537 10.1641 23.7421C10.3692 23.9473 10.6474 24.0625 10.9375 24.0625H14.2188C14.5088 24.0625 14.787 23.9473 14.9921 23.7421C15.1973 23.537 15.3125 23.2588 15.3125 22.9688C15.3125 22.6787 15.1973 22.4005 14.9921 22.1954C14.787 21.9902 14.5088 21.875 14.2188 21.875H10.9375Z" fill="#F2AC29"/>
</svg>
