<svg width="38" height="35" viewBox="0 0 38 35" fill="none" xmlns="http://www.w3.org/2000/svg">
<path fill-rule="evenodd" clip-rule="evenodd" d="M29.8332 5.83331C31.0347 5.83325 32.1909 6.25962 33.0651 7.02518C33.9393 7.79075 34.4654 8.83764 34.5359 9.95165L34.5438 10.2083V24.7916C34.5438 25.9076 34.0848 26.9814 33.2605 27.7933C32.4362 28.6052 31.309 29.0939 30.1096 29.1594L29.8332 29.1666H7.85068C6.64916 29.1667 5.49303 28.7403 4.61884 27.9748C3.74465 27.2092 3.21848 26.1623 3.14799 25.0483L3.14014 24.7916V10.2083C3.14007 9.09238 3.59914 8.0186 4.42342 7.20668C5.2477 6.39476 6.37488 5.90607 7.57433 5.8406L7.85068 5.83331H29.8332ZM31.4034 14.5833H6.2805V24.7916C6.28055 25.1488 6.42175 25.4936 6.67731 25.7605C6.93287 26.0274 7.28502 26.198 7.66697 26.2398L7.85068 26.25H29.8332C30.2178 26.2499 30.589 26.1188 30.8764 25.8814C31.1638 25.6441 31.3474 25.317 31.3924 24.9623L31.4034 24.7916V14.5833ZM14.5915 16.7183C14.874 16.4568 15.2532 16.3049 15.6519 16.2936C16.0507 16.2823 16.4391 16.4124 16.7383 16.6574C17.0376 16.9025 17.2251 17.2441 17.263 17.613C17.3008 17.9818 17.1861 18.3502 16.942 18.6433L16.8117 18.7819L16.6217 18.9583H23.5525C23.9527 18.9587 24.3376 19.1011 24.6287 19.3562C24.9197 19.6114 25.0948 19.9601 25.1182 20.3312C25.1417 20.7022 25.0117 21.0676 24.7548 21.3527C24.498 21.6377 24.1336 21.8209 23.7362 21.8648L23.5525 21.875H16.6217L16.8101 22.0514C17.0947 22.3133 17.2608 22.6662 17.2744 23.0381C17.288 23.4099 17.148 23.7725 16.8832 24.0517C16.6184 24.3308 16.2487 24.5054 15.8498 24.5397C15.4509 24.5739 15.053 24.4653 14.7375 24.236L14.5915 24.1135L11.7196 21.4477C11.4493 21.1966 11.2869 20.8625 11.2629 20.5081C11.2389 20.1536 11.3549 19.8033 11.5893 19.5227L11.7196 19.3856L14.5915 16.7183ZM29.8332 8.74998H7.85068C7.43424 8.74998 7.03486 8.90363 6.7404 9.17712C6.44593 9.45061 6.2805 9.82154 6.2805 10.2083V11.6666H31.4034V10.2083C31.4034 9.82154 31.238 9.45061 30.9435 9.17712C30.649 8.90363 30.2497 8.74998 29.8332 8.74998Z" fill="#F2AC29"/>
</svg>
